<mxfile host="app.diagrams.net" modified="2022-03-09T21:28:48.890Z" agent="5.0 (Windows)" etag="2edfFcPDkihSPOcedGlv" version="17.0.0" type="github">
  <diagram id="5Wje9K0xAD9k6Xcyfqx2" name="Page-1">
    <mxGraphModel dx="1240" dy="1743" grid="1" gridSize="10" guides="1" tooltips="1" connect="1" arrows="1" fold="1" page="1" pageScale="1" pageWidth="850" pageHeight="1100" math="0" shadow="0">
      <root>
        <mxCell id="0" />
        <mxCell id="1" parent="0" />
        <mxCell id="6Uv2s3gWY1HWCF7CFjjz-1" style="edgeStyle=orthogonalEdgeStyle;rounded=0;orthogonalLoop=1;jettySize=auto;html=1;entryX=0;entryY=0.5;entryDx=0;entryDy=0;fontSize=24;strokeWidth=3;" parent="1" source="6Uv2s3gWY1HWCF7CFjjz-2" target="6Uv2s3gWY1HWCF7CFjjz-4" edge="1">
          <mxGeometry relative="1" as="geometry" />
        </mxCell>
        <mxCell id="6Uv2s3gWY1HWCF7CFjjz-2" value="&lt;font style=&quot;font-size: 24px&quot;&gt;Player&lt;/font&gt;" style="rounded=1;whiteSpace=wrap;html=1;strokeWidth=3;" parent="1" vertex="1">
          <mxGeometry x="10" y="167.5" width="130" height="70" as="geometry" />
        </mxCell>
        <mxCell id="6Uv2s3gWY1HWCF7CFjjz-3" style="edgeStyle=orthogonalEdgeStyle;rounded=0;orthogonalLoop=1;jettySize=auto;html=1;entryX=0;entryY=0.5;entryDx=0;entryDy=0;fontSize=24;strokeWidth=3;" parent="1" source="6Uv2s3gWY1HWCF7CFjjz-4" target="6Uv2s3gWY1HWCF7CFjjz-7" edge="1">
          <mxGeometry relative="1" as="geometry" />
        </mxCell>
        <mxCell id="6Uv2s3gWY1HWCF7CFjjz-4" value="1. Title Screen" style="ellipse;whiteSpace=wrap;html=1;aspect=fixed;fontSize=24;strokeWidth=3;" parent="1" vertex="1">
          <mxGeometry x="240" y="130" width="145" height="145" as="geometry" />
        </mxCell>
        <mxCell id="6Uv2s3gWY1HWCF7CFjjz-5" style="edgeStyle=orthogonalEdgeStyle;rounded=0;orthogonalLoop=1;jettySize=auto;html=1;fontSize=24;strokeWidth=3;entryX=0;entryY=0.5;entryDx=0;entryDy=0;" parent="1" source="6Uv2s3gWY1HWCF7CFjjz-7" target="6Uv2s3gWY1HWCF7CFjjz-10" edge="1">
          <mxGeometry relative="1" as="geometry" />
        </mxCell>
        <mxCell id="6Uv2s3gWY1HWCF7CFjjz-6" style="edgeStyle=orthogonalEdgeStyle;rounded=0;orthogonalLoop=1;jettySize=auto;html=1;entryX=-0.007;entryY=0.669;entryDx=0;entryDy=0;entryPerimeter=0;fontSize=24;strokeWidth=3;" parent="1" source="6Uv2s3gWY1HWCF7CFjjz-7" target="6Uv2s3gWY1HWCF7CFjjz-13" edge="1">
          <mxGeometry relative="1" as="geometry" />
        </mxCell>
        <mxCell id="6Uv2s3gWY1HWCF7CFjjz-7" value="Logged In?" style="rhombus;whiteSpace=wrap;html=1;fontSize=24;strokeWidth=3;" parent="1" vertex="1">
          <mxGeometry x="460" y="155" width="170" height="95" as="geometry" />
        </mxCell>
        <mxCell id="6Uv2s3gWY1HWCF7CFjjz-8" style="edgeStyle=orthogonalEdgeStyle;rounded=0;orthogonalLoop=1;jettySize=auto;html=1;fontSize=24;strokeWidth=3;" parent="1" source="6Uv2s3gWY1HWCF7CFjjz-10" target="6Uv2s3gWY1HWCF7CFjjz-13" edge="1">
          <mxGeometry relative="1" as="geometry" />
        </mxCell>
        <mxCell id="173SKPlbLqR5OTm6yO48-7" style="edgeStyle=orthogonalEdgeStyle;rounded=0;orthogonalLoop=1;jettySize=auto;html=1;exitX=0;exitY=0.75;exitDx=0;exitDy=0;entryX=1;entryY=1;entryDx=0;entryDy=0;fontSize=16;strokeWidth=3;" edge="1" parent="1" source="6Uv2s3gWY1HWCF7CFjjz-15" target="6Uv2s3gWY1HWCF7CFjjz-10">
          <mxGeometry relative="1" as="geometry" />
        </mxCell>
        <mxCell id="173SKPlbLqR5OTm6yO48-8" style="edgeStyle=orthogonalEdgeStyle;rounded=0;orthogonalLoop=1;jettySize=auto;html=1;exitX=1;exitY=0;exitDx=0;exitDy=0;entryX=0;entryY=0.25;entryDx=0;entryDy=0;fontSize=16;strokeWidth=3;" edge="1" parent="1" source="6Uv2s3gWY1HWCF7CFjjz-10" target="6Uv2s3gWY1HWCF7CFjjz-15">
          <mxGeometry relative="1" as="geometry" />
        </mxCell>
        <mxCell id="6Uv2s3gWY1HWCF7CFjjz-10" value="2. Sign In/ Sign Up" style="ellipse;whiteSpace=wrap;html=1;aspect=fixed;fontSize=24;strokeWidth=3;" parent="1" vertex="1">
          <mxGeometry x="620" y="-30" width="145" height="145" as="geometry" />
        </mxCell>
        <mxCell id="6Uv2s3gWY1HWCF7CFjjz-12" style="edgeStyle=orthogonalEdgeStyle;rounded=0;orthogonalLoop=1;jettySize=auto;html=1;entryX=0.592;entryY=-0.017;entryDx=0;entryDy=0;entryPerimeter=0;fontSize=24;strokeWidth=3;exitX=1;exitY=0;exitDx=0;exitDy=0;" parent="1" source="6Uv2s3gWY1HWCF7CFjjz-13" target="6Uv2s3gWY1HWCF7CFjjz-19" edge="1">
          <mxGeometry relative="1" as="geometry" />
        </mxCell>
        <mxCell id="6Uv2s3gWY1HWCF7CFjjz-13" value="3. Game" style="ellipse;whiteSpace=wrap;html=1;aspect=fixed;fontSize=24;strokeWidth=3;" parent="1" vertex="1">
          <mxGeometry x="620" y="280" width="145" height="145" as="geometry" />
        </mxCell>
        <mxCell id="173SKPlbLqR5OTm6yO48-10" style="edgeStyle=orthogonalEdgeStyle;rounded=0;orthogonalLoop=1;jettySize=auto;html=1;exitX=0.5;exitY=0;exitDx=0;exitDy=0;entryX=0.5;entryY=0;entryDx=0;entryDy=0;fontSize=16;strokeWidth=3;" edge="1" parent="1" source="6Uv2s3gWY1HWCF7CFjjz-15" target="6Uv2s3gWY1HWCF7CFjjz-17">
          <mxGeometry relative="1" as="geometry" />
        </mxCell>
        <mxCell id="6Uv2s3gWY1HWCF7CFjjz-15" value="Steam API" style="rounded=1;whiteSpace=wrap;html=1;fontSize=24;strokeWidth=3;" parent="1" vertex="1">
          <mxGeometry x="880" y="12.5" width="120" height="60" as="geometry" />
        </mxCell>
        <mxCell id="173SKPlbLqR5OTm6yO48-11" style="edgeStyle=orthogonalEdgeStyle;rounded=0;orthogonalLoop=1;jettySize=auto;html=1;exitX=0.5;exitY=1;exitDx=0;exitDy=0;entryX=0.5;entryY=1;entryDx=0;entryDy=0;fontSize=16;strokeWidth=3;" edge="1" parent="1" source="6Uv2s3gWY1HWCF7CFjjz-17" target="6Uv2s3gWY1HWCF7CFjjz-15">
          <mxGeometry relative="1" as="geometry" />
        </mxCell>
        <mxCell id="6Uv2s3gWY1HWCF7CFjjz-17" value="&lt;div&gt;Player&lt;/div&gt;&lt;div&gt;Database&lt;br&gt;&lt;/div&gt;" style="shape=partialRectangle;whiteSpace=wrap;html=1;left=0;right=0;fillColor=none;fontSize=24;strokeWidth=3;" parent="1" vertex="1">
          <mxGeometry x="1110" y="12.5" width="120" height="60" as="geometry" />
        </mxCell>
        <mxCell id="6Uv2s3gWY1HWCF7CFjjz-18" style="edgeStyle=orthogonalEdgeStyle;rounded=0;orthogonalLoop=1;jettySize=auto;html=1;entryX=1;entryY=1;entryDx=0;entryDy=0;fontSize=24;strokeWidth=3;exitX=0.5;exitY=1;exitDx=0;exitDy=0;" parent="1" source="6Uv2s3gWY1HWCF7CFjjz-19" target="6Uv2s3gWY1HWCF7CFjjz-13" edge="1">
          <mxGeometry relative="1" as="geometry" />
        </mxCell>
        <mxCell id="6Uv2s3gWY1HWCF7CFjjz-19" value="Saved File" style="shape=partialRectangle;whiteSpace=wrap;html=1;left=0;right=0;fillColor=none;fontSize=24;strokeWidth=3;" parent="1" vertex="1">
          <mxGeometry x="890" y="323" width="120" height="60" as="geometry" />
        </mxCell>
        <mxCell id="6Uv2s3gWY1HWCF7CFjjz-21" value="&lt;div&gt;Start&lt;/div&gt;&lt;div&gt;Game&lt;br&gt;&lt;/div&gt;" style="text;html=1;align=center;verticalAlign=middle;resizable=0;points=[];autosize=1;strokeColor=none;fillColor=none;fontSize=18;" parent="1" vertex="1">
          <mxGeometry x="150" y="177" width="60" height="50" as="geometry" />
        </mxCell>
        <mxCell id="6Uv2s3gWY1HWCF7CFjjz-22" value="No" style="text;html=1;align=center;verticalAlign=middle;resizable=0;points=[];autosize=1;strokeColor=none;fillColor=none;fontSize=16;" parent="1" vertex="1">
          <mxGeometry x="510" y="80" width="40" height="20" as="geometry" />
        </mxCell>
        <mxCell id="6Uv2s3gWY1HWCF7CFjjz-23" value="Yes" style="text;html=1;align=center;verticalAlign=middle;resizable=0;points=[];autosize=1;strokeColor=none;fillColor=none;fontSize=16;" parent="1" vertex="1">
          <mxGeometry x="500" y="303" width="40" height="20" as="geometry" />
        </mxCell>
        <mxCell id="6Uv2s3gWY1HWCF7CFjjz-24" value="Open&amp;nbsp; Game&amp;nbsp;&amp;nbsp; " style="text;html=1;align=center;verticalAlign=middle;resizable=0;points=[];autosize=1;strokeColor=none;fillColor=none;fontSize=16;" parent="1" vertex="1">
          <mxGeometry x="640" y="190" width="120" height="20" as="geometry" />
        </mxCell>
        <mxCell id="6Uv2s3gWY1HWCF7CFjjz-25" value="&lt;div&gt;Check User &lt;br&gt;&lt;/div&gt;&lt;div&gt;Provided Data&lt;/div&gt;" style="text;html=1;align=center;verticalAlign=middle;resizable=0;points=[];autosize=1;strokeColor=none;fillColor=none;fontSize=16;" parent="1" vertex="1">
          <mxGeometry x="1000" y="-27" width="120" height="40" as="geometry" />
        </mxCell>
        <mxCell id="6Uv2s3gWY1HWCF7CFjjz-27" value="Look for saved game" style="text;html=1;align=center;verticalAlign=middle;resizable=0;points=[];autosize=1;strokeColor=none;fillColor=none;fontSize=16;" parent="1" vertex="1">
          <mxGeometry x="780" y="280" width="160" height="20" as="geometry" />
        </mxCell>
        <mxCell id="6Uv2s3gWY1HWCF7CFjjz-28" value="&amp;nbsp;&amp;nbsp;&amp;nbsp;&amp;nbsp;&amp;nbsp;&amp;nbsp;&amp;nbsp;&amp;nbsp;&amp;nbsp;&amp;nbsp;&amp;nbsp;&amp;nbsp;&amp;nbsp;&amp;nbsp;&amp;nbsp;&amp;nbsp;&amp;nbsp;&amp;nbsp;&amp;nbsp; Load Game" style="text;html=1;align=center;verticalAlign=middle;resizable=0;points=[];autosize=1;strokeColor=none;fillColor=none;fontSize=16;" parent="1" vertex="1">
          <mxGeometry x="706" y="409" width="190" height="20" as="geometry" />
        </mxCell>
        <mxCell id="6Uv2s3gWY1HWCF7CFjjz-36" value="&lt;div&gt;&lt;span style=&quot;background-color: rgb(255 , 255 , 255)&quot;&gt;Player &lt;br&gt;&lt;/span&gt;&lt;/div&gt;&lt;div&gt;&lt;span style=&quot;background-color: rgb(255 , 255 , 255)&quot;&gt;Information&lt;/span&gt;&lt;/div&gt;&lt;div&gt;&lt;span style=&quot;background-color: rgb(255 , 255 , 255)&quot;&gt;&lt;/span&gt;&lt;/div&gt;" style="text;html=1;align=center;verticalAlign=middle;resizable=0;points=[];autosize=1;strokeColor=none;fillColor=none;fontSize=16;" parent="1" vertex="1">
          <mxGeometry x="767" y="22.5" width="100" height="40" as="geometry" />
        </mxCell>
        <mxCell id="173SKPlbLqR5OTm6yO48-6" value="&lt;font style=&quot;font-size: 16px&quot;&gt;Send Confirmation&lt;/font&gt;" style="text;html=1;align=center;verticalAlign=middle;resizable=0;points=[];autosize=1;strokeColor=none;fillColor=none;" vertex="1" parent="1">
          <mxGeometry x="985" y="95" width="150" height="20" as="geometry" />
        </mxCell>
      </root>
    </mxGraphModel>
  </diagram>
</mxfile>
